<svg width="64" height="64" viewBox="0 0 64 64" fill="none" xmlns="http://www.w3.org/2000/svg">
<path d="M30.6667 42.5866L31.76 49.0933C31.0667 49.4666 29.9467 49.8133 28.4533 50.1333C26.9333 50.48 25.1467 50.6666 23.0933 50.6666C17.2 50.56 12.7733 48.8 9.81334 45.44C6.82668 42.0533 5.33334 37.76 5.33334 32.56C5.46668 26.4 7.25334 21.68 10.6667 18.3733C14.1867 15.04 18.56 13.3333 23.84 13.3333C25.84 13.3333 27.5733 13.52 29.0133 13.84C30.4533 14.16 31.52 14.5066 32.2133 14.9066L30.6667 21.5466L27.84 20.64C26.7733 20.3733 25.5467 20.24 24.1333 20.24C21.04 20.2133 18.48 21.2 16.48 23.1733C14.4533 25.12 13.4133 28.1066 13.3333 32.08C13.3333 35.7066 14.32 38.5333 16.2133 40.6133C18.1067 42.6666 20.7733 43.7333 24.1867 43.76L27.7333 43.44C28.88 43.2266 29.84 42.9333 30.6667 42.5866V42.5866ZM37.04 50.6666L38.6667 40H34.6667L35.5733 34.6666H39.5733L40.4267 29.3333H36.4267L37.3333 24H41.3333L42.96 13.3333H48.2933L46.6667 24H49.3333L50.96 13.3333H56.2933L54.6667 24H58.6667L57.76 29.3333H53.76L52.9067 34.6666H56.9067L56 40H52L50.3733 50.6666H45.04L46.6667 40H44L42.3733 50.6666H37.04ZM44.9067 34.6666H47.5733L48.4267 29.3333H45.76L44.9067 34.6666Z" fill="black"/>
</svg>
