<svg width="64" height="64" viewBox="0 0 64 64" fill="none" xmlns="http://www.w3.org/2000/svg">
<path d="M5.33329 40C6.04054 40 6.71881 40.281 7.21891 40.781C7.71901 41.2811 7.99996 41.9594 7.99996 42.6667C7.99996 43.3739 7.71901 44.0522 7.21891 44.5523C6.71881 45.0524 6.04054 45.3333 5.33329 45.3333C4.62605 45.3333 3.94777 45.0524 3.44767 44.5523C2.94758 44.0522 2.66663 43.3739 2.66663 42.6667C2.66663 41.9594 2.94758 41.2811 3.44767 40.781C3.94777 40.281 4.62605 40 5.33329 40V40ZM56 45.3333H50.6666V24H45.3333V18.6667H61.3333V24H56V45.3333ZM42.6666 18.6667V24H37.3333V29.3333H42.6666V34.6667H37.3333V40H42.6666V45.3333H32V18.6667H42.6666ZM29.3333 18.6667V45.3333H24L16 29.3333V45.3333H10.6666V18.6667H16L24 34.6667V18.6667H29.3333Z" fill="black"/>
</svg>
