<svg width="64" height="64" viewBox="0 0 64 64" fill="none" xmlns="http://www.w3.org/2000/svg">
<g clip-path="url(#clip0)">
<path d="M64 14.552V51.6427C64 54.0533 62.048 56.0053 59.6373 56.0053H49.4533V31.28L32 44.3733L14.5467 31.28V56.008H4.36267C3.78953 56.008 3.22201 55.8951 2.69253 55.6757C2.16305 55.4562 1.682 55.1347 1.27685 54.7293C0.871707 54.3239 0.550411 53.8426 0.331323 53.313C0.112236 52.7834 -0.000349514 52.2158 8.15071e-07 51.6427V14.552C8.15071e-07 9.15733 6.15733 6.07733 10.472 9.31466L14.5467 12.3733L32 25.4613L49.4533 12.368L53.528 9.31466C57.84 6.08 64 9.15733 64 14.552Z" fill="black"/>
</g>
<defs>
<clipPath id="clip0">
<rect width="64" height="64" fill="white"/>
</clipPath>
</defs>
</svg>
