<svg width="64" height="64" viewBox="0 0 64 64" fill="none" xmlns="http://www.w3.org/2000/svg">
<path d="M0 4.584C0 2.052 2.104 0 4.7 0H59.3C61.896 0 64 2.052 64 4.584V59.416C64 61.948 61.896 64 59.3 64H4.7C2.104 64 0 61.948 0 59.416V4.584ZM19.772 53.576V24.676H10.168V53.576H19.772ZM14.972 20.728C18.32 20.728 20.404 18.512 20.404 15.736C20.344 12.9 18.324 10.744 15.036 10.744C11.748 10.744 9.6 12.904 9.6 15.736C9.6 18.512 11.684 20.728 14.908 20.728H14.972ZM34.604 53.576V37.436C34.604 36.572 34.668 35.708 34.924 35.092C35.616 33.368 37.196 31.58 39.852 31.58C43.328 31.58 44.716 34.228 44.716 38.116V53.576H54.32V37C54.32 28.12 49.584 23.992 43.264 23.992C38.168 23.992 35.884 26.792 34.604 28.764V28.864H34.54C34.5612 28.8306 34.5826 28.7973 34.604 28.764V24.676H25.004C25.124 27.388 25.004 53.576 25.004 53.576H34.604Z" fill="black"/>
</svg>
