<svg width="64" height="64" viewBox="0 0 64 64" fill="none" xmlns="http://www.w3.org/2000/svg">
<path d="M45.812 25.386C42.448 10.552 34.5 5.688 33.646 3.824C32.708 2.502 31.698 0.0019989 31.698 0.0019989C31.688 0.0539989 31.688 0.0859989 31.678 0.137999V0.169999C31.678 0.211999 31.668 0.231999 31.668 0.273999V0.315999H31.658V0.449999H31.648C31.648 0.469999 31.648 0.501999 31.638 0.511999V0.573999C31.638 0.593999 31.638 0.615999 31.628 0.625999V0.677999C31.628 0.709999 31.628 0.739999 31.618 0.761999V0.771999C31.6163 0.817919 31.6096 0.863515 31.598 0.907999V0.927999C31.588 0.937999 31.588 0.947999 31.588 0.959999V1.002H31.578V1.064H31.568V1.106H31.548V1.168H31.538V1.22H31.528V1.262H31.518V1.304H31.508V1.346H31.498V1.388H31.488V1.42H31.478V1.462H31.468V1.504H31.458C31.448 1.504 31.448 1.514 31.448 1.514V1.534L31.438 1.554C31.438 1.574 31.428 1.596 31.418 1.616C31.408 1.626 31.408 1.626 31.408 1.636V1.656H31.398V1.676H31.378V1.728H31.358V1.76H31.348V1.77H31.338V1.79H31.328V1.822H31.318V1.842H31.298V1.874H31.288V1.894H31.278V1.914H31.268V1.946H31.258V1.966H31.248V1.976H31.238V1.996H31.218V2.028H31.208V2.038H31.198V2.058H31.188V2.09H31.178V2.1H31.168V2.12H31.158V2.13H31.148V2.162H31.128V2.172H31.118V2.192H31.108V2.202H31.098V2.222H31.088V2.242C31.078 2.242 31.078 2.252 31.078 2.252V2.262H31.068L31.036 2.314C31.036 2.314 31.016 2.334 31.016 2.346C31.006 2.346 31.006 2.356 31.006 2.356V2.366H30.996V2.376H30.986V2.396H30.966V2.406H30.956V2.416H30.946V2.446H30.936V2.456H30.926V2.466H30.916V2.486H30.906V2.466H30.886V2.476H30.876V2.496H30.866V2.516H30.856V2.526H30.846V2.536H30.836V2.546H30.826V2.566H30.806V2.576H30.796V2.596H30.786V2.606H30.776V2.616H30.766V2.648H30.756V2.658H30.746V2.668H30.736V2.678H30.726V2.688H30.706V2.708H30.696V2.718H30.686V2.728H30.676V2.748H30.666V2.758H30.646V2.768H30.636V2.778H30.626V2.798H30.616V2.818H30.606V2.828H30.596V2.838H30.576V2.848H30.566V2.858H30.556V2.878H30.546V2.888H30.536V2.908H30.526V2.918H30.516V2.928H30.506V2.938H30.496V2.948H30.476V2.958C30.466 2.958 30.466 2.968 30.466 2.968L30.456 2.978L30.446 2.988V3.008H30.436V3.018H30.426V3.028H30.416V3.038H30.406L30.386 3.058V3.068C30.366 3.078 30.366 3.088 30.344 3.11C30.344 3.11 30.324 3.13 30.312 3.13C30.28 3.15 30.24 3.192 30.208 3.224C30.188 3.234 30.166 3.256 30.146 3.266C30.104 3.308 30.062 3.338 30.02 3.37C29.958 3.432 29.894 3.474 29.822 3.536H29.812L29.322 3.964H29.312C28.864 4.36 28.332 4.87 27.728 5.474L27.676 5.526C24.05 9.276 18.332 17.098 17.738 29.734C17.676 30.776 17.686 31.796 17.748 32.786V32.806C18.04 37.786 19.602 42.036 21.56 45.494C22.33 46.87 23.174 48.12 24.028 49.244C26.966 53.12 29.966 55.422 30.726 55.984C31.904 58.702 31.798 63.39 31.798 63.39L33.516 63.962C33.516 63.962 33.162 59.43 33.652 57.232C33.808 56.554 34.162 55.972 34.58 55.472C34.872 55.274 35.706 54.67 36.706 53.754C36.758 53.702 36.79 53.66 36.832 53.608C40.884 49.826 48.458 40.514 45.864 25.348L45.812 25.386Z" fill="black"/>
</svg>
