<svg width="64" height="64" viewBox="0 0 64 64" fill="none" xmlns="http://www.w3.org/2000/svg">
<path d="M32 4.93333C31.28 4.93333 30.5333 5.12 29.92 5.46667L10.08 16.9333C8.8 17.68 8 19.0667 8 20.56V43.44C8 44.9333 8.8 46.32 10.08 47.0667L15.28 50.0533C17.8133 51.28 18.6667 51.3067 19.84 51.3067C23.5733 51.3067 25.7333 49.04 25.7333 45.0933V22.5067C25.7333 22.1867 25.4667 21.92 25.1467 21.92H22.6667C22.32 21.92 22.0533 22.1867 22.0533 22.5067V45.0933C22.0533 46.8533 20.24 48.5867 17.3333 47.12L11.8667 44C11.7769 43.9366 11.7035 43.8527 11.6525 43.7554C11.6015 43.658 11.5743 43.5499 11.5733 43.44V20.56C11.5733 20.32 11.68 20.1067 11.8667 20L31.7067 8.56C31.8667 8.45333 32.1333 8.45333 32.2933 8.56L52.1333 20C52.32 20.1067 52.4267 20.32 52.4267 20.56V43.44C52.4267 43.6533 52.32 43.8667 52.1333 44L32.2933 55.44C32.1333 55.5467 31.8667 55.5467 31.68 55.44L26.6667 52.4C26.4533 52.32 26.24 52.2933 26.1067 52.3733C24.6933 53.1733 24.4267 53.3333 23.12 53.7333C22.8 53.84 22.2933 54.0267 23.3067 54.5867L29.92 58.5067C30.56 58.88 31.2533 59.0667 32 59.0667C32.7467 59.0667 33.44 58.88 34.08 58.5067L53.92 47.0667C55.2 46.32 56 44.9333 56 43.44V20.56C56 19.0667 55.2 17.68 53.92 16.9333L34.08 5.46667C33.4667 5.12 32.7467 4.93333 32 4.93333V4.93333ZM37.3333 21.3333C31.68 21.3333 28.2933 23.7067 28.2933 27.7067C28.2933 32 31.6533 33.2533 37.0933 33.7867C43.5733 34.4267 44.08 35.3867 44.08 36.6667C44.08 38.88 42.2933 39.8133 38.1333 39.8133C32.8533 39.8133 31.7333 38.5067 31.3333 35.8933C31.3053 35.7583 31.2317 35.6369 31.1249 35.5496C31.0181 35.4622 30.8846 35.4141 30.7467 35.4133H28.1867C27.8667 35.4133 27.6267 35.6533 27.6267 36C27.6267 39.3067 29.44 43.3067 38.1333 43.3067C44.4 43.3067 48 40.8267 48 36.5067C48 32.2133 45.12 31.0933 39.0133 30.2667C32.8533 29.4667 32.24 29.04 32.24 27.6C32.24 26.4 32.7733 24.8 37.3333 24.8C41.3333 24.8 42.9067 25.68 43.52 28.4267C43.5733 28.6933 43.8133 28.88 44.08 28.88H46.6667C46.8 28.88 46.96 28.8267 47.0667 28.6933C47.1733 28.5867 47.2533 28.4267 47.2 28.2667C46.8267 23.52 43.68 21.3333 37.3333 21.3333Z" fill="black"/>
</svg>
