<svg width="64" height="64" viewBox="0 0 64 64" fill="none" xmlns="http://www.w3.org/2000/svg">
<g clip-path="url(#clip0)">
<path d="M45.5627 0C43.076 0.0184972 40.6038 0.380132 38.216 1.07467L38.048 1.128C36.5419 0.861834 35.0172 0.714712 33.488 0.688C30.3467 0.634667 27.648 1.39733 25.472 2.66667C23.328 1.92267 18.88 0.64 14.192 0.896C10.928 1.07467 7.36536 2.06933 4.72536 4.85333C2.09336 7.64 0.698689 11.952 0.992023 17.8187C1.07202 19.4373 1.53602 22.0773 2.29869 25.4987C3.06669 28.9147 4.13869 32.9173 5.48269 36.568C6.82402 40.2213 8.29336 43.5013 10.5894 45.7307C11.736 46.8507 13.3147 47.7867 15.176 47.7093C16.4827 47.656 17.664 47.0827 18.6827 46.2373C19.1787 46.8907 19.7094 47.176 20.192 47.44C20.8 47.7733 21.392 48 22.0054 48.1493C23.1067 48.424 24.992 48.792 27.2 48.416C27.952 48.2907 28.744 48.0453 29.5334 47.696C29.56 48.576 29.5974 49.4373 29.632 50.3093C29.7387 53.072 29.8107 55.624 30.64 57.8613C30.7734 58.2267 31.1387 60.1093 32.5787 61.7707C34.0187 63.4347 36.84 64.472 40.0534 63.784C42.32 63.2987 45.2 62.424 47.1174 59.6987C49.0107 57.0053 49.864 53.1413 50.032 46.8747C50.0701 46.5743 50.1191 46.2755 50.1787 45.9787L50.6294 46.0187H50.6827C53.1014 46.128 55.7227 45.784 57.9174 44.7653C59.8587 43.8667 61.328 42.9573 62.3974 41.344C62.664 40.944 62.9574 40.464 63.0374 39.6293C63.1174 38.7973 62.6374 37.496 61.848 36.896C60.2614 35.6907 59.2614 36.1493 58.1947 36.3707C57.1413 36.6035 56.0679 36.7339 54.9894 36.76C58.072 31.568 60.2827 26.0533 61.544 21.1733C62.2907 18.2933 62.7094 15.6373 62.744 13.3147C62.7787 10.9947 62.5894 8.936 61.1974 7.15733C56.848 1.6 50.7334 0.064 46 0.0106667C45.8534 0.0106667 45.7067 0.00533333 45.56 0.0106667L45.5627 0ZM45.4374 1.70667C49.912 1.664 55.6294 2.92 59.7307 8.16533C60.656 9.344 60.9307 11.0667 60.8987 13.1893C60.864 15.3093 60.472 17.848 59.752 20.6293C58.3627 26.016 55.7334 32.296 52.0294 37.9307C52.1602 38.0236 52.3016 38.1006 52.4507 38.16C53.224 38.48 54.984 38.7547 58.504 38.032C59.3894 37.8453 60.0374 37.72 60.7094 38.232C60.8727 38.3704 61.0017 38.5448 61.0864 38.7414C61.171 38.938 61.209 39.1516 61.1974 39.3653C61.1615 39.689 61.042 39.9978 60.8507 40.2613C60.1707 41.2827 58.8294 42.2507 57.1094 43.048C55.5867 43.7573 53.4027 44.128 51.4667 44.1493C50.496 44.16 49.6 44.0853 48.84 43.848L48.792 43.8293C48.4987 46.656 47.824 52.2373 47.384 54.784C47.032 56.8373 46.416 58.4693 45.24 59.6907C44.0667 60.912 42.4054 61.648 40.1707 62.128C37.4027 62.7227 35.384 62.0827 34.0827 60.9867C32.784 59.8933 32.1894 58.4427 31.832 57.5547C31.5867 56.9413 31.4587 56.1467 31.336 55.0853C31.2134 54.024 31.1227 52.7253 31.0614 51.2613C30.9797 49.0197 30.953 46.7763 30.9814 44.5333C29.8251 45.5924 28.3883 46.296 26.8427 46.56C25.0027 46.872 23.3654 46.5653 22.3867 46.32C21.9044 46.1997 21.4387 46.0206 21 45.7867C20.5467 45.5413 20.1147 45.2667 19.8267 44.7253C19.6581 44.4161 19.6043 44.0571 19.6747 43.712C19.7643 43.3603 19.9689 43.0487 20.256 42.8267C20.784 42.4 21.4827 42.16 22.536 41.9387C24.4534 41.544 25.1227 41.2747 25.5307 40.952C25.8774 40.6747 26.2694 40.1147 26.9627 39.2933C26.9594 39.2578 26.9567 39.2223 26.9547 39.1867C25.7136 39.1509 24.4985 38.8229 23.408 38.2293C23.008 38.6507 20.9654 40.8107 18.4747 43.808C17.4267 45.0613 16.2694 45.7813 15.048 45.8347C13.8267 45.888 12.7227 45.2693 11.784 44.36C9.90936 42.5387 8.41336 39.4053 7.10936 35.864C5.80802 32.3227 4.74936 28.3787 3.99736 25.0187C3.24269 21.6587 2.79736 18.9493 2.73336 17.6427C2.45336 12.0907 3.75202 8.34933 5.97869 5.98933C8.20802 3.62933 11.264 2.736 14.2427 2.56533C19.5894 2.25867 24.6667 4.12267 25.6934 4.52267C27.672 3.17867 30.2214 2.34133 33.4054 2.39467C34.916 2.41607 36.4192 2.61113 37.8854 2.976L37.9387 2.952C38.5853 2.72494 39.2441 2.53441 39.912 2.38133C41.7225 1.9599 43.5733 1.73637 45.432 1.71467L45.4374 1.70667ZM45.8427 3.49333H45.4534C43.9256 3.51464 42.4036 3.68613 40.9094 4.00533C44.232 5.47733 46.7414 7.744 48.5094 10.0053C49.7375 11.571 50.7526 13.2927 51.528 15.1253C51.8214 15.8293 52.0187 16.424 52.1307 16.8853C52.184 17.1173 52.224 17.312 52.2374 17.5147C52.2479 17.6436 52.2371 17.7733 52.2054 17.8987C52.2054 17.9067 52.192 17.9253 52.1894 17.9333C52.2694 20.2693 51.6907 21.8533 51.6214 24.0827C51.568 25.6987 51.9814 27.5973 52.0827 29.6693C52.1787 31.616 51.944 33.7547 50.68 35.856C50.7867 35.9813 50.8827 36.1093 50.984 36.2373C54.328 30.9707 56.7387 25.144 58.024 20.176C58.712 17.5013 59.0774 15.0773 59.1094 13.1573C59.136 11.2373 58.7787 9.84533 58.3227 9.264C54.744 4.688 49.9014 3.52267 45.8427 3.49067V3.49333ZM33.0694 4.176C29.9174 4.184 27.656 5.136 25.9414 6.56267C24.1734 8.03733 22.9867 10.056 22.208 12.1227C21.2827 14.576 20.9654 16.9493 20.84 18.56L20.8747 18.5387C21.8267 18.0053 23.0774 17.472 24.416 17.1627C25.7547 16.856 27.1974 16.7627 28.504 17.2693C29.8107 17.776 30.8907 18.9653 31.2827 20.7733C33.16 29.4587 30.696 32.688 29.7894 35.1253C29.4463 36.0088 29.1525 36.9106 28.9094 37.8267C29.024 37.8 29.1387 37.768 29.2534 37.7573C29.8934 37.704 30.3947 37.9173 30.6934 38.0453C31.6054 38.424 32.232 39.2187 32.5707 40.1253C32.6587 40.3653 32.7227 40.6187 32.7574 40.8827C32.7968 40.9911 32.8149 41.1061 32.8107 41.2213C32.7105 44.5435 32.7229 47.868 32.848 51.1893C32.9094 52.624 33 53.888 33.1147 54.8853C33.2294 55.88 33.392 56.6373 33.496 56.8933C33.8374 57.7467 34.336 58.8667 35.2374 59.624C36.1387 60.3813 37.432 60.888 39.7947 60.3813C41.8427 59.9413 43.1067 59.3307 43.952 58.4533C44.7947 57.576 45.2987 56.3547 45.6214 54.4853C46.1014 51.6853 47.0747 43.5653 47.192 42.0373C47.1387 40.8853 47.3094 40 47.6774 39.3253C48.056 38.632 48.6427 38.208 49.1494 37.9787C49.4027 37.864 49.64 37.7867 49.8347 37.7307C49.6286 37.4345 49.4125 37.1454 49.1867 36.864C48.4562 35.9781 47.858 34.9909 47.4107 33.9333C47.1965 33.4966 46.9679 33.067 46.7254 32.6453C46.3707 32.0053 45.9227 31.2053 45.4534 30.3067C44.5147 28.5067 43.4934 26.3253 42.9627 24.2C42.4347 22.0773 42.3574 19.88 43.7094 18.3333C44.9094 16.9547 47.016 16.3867 50.1814 16.7067C50.088 16.424 50.032 16.192 49.8747 15.8187C49.1597 14.1357 48.2263 12.5541 47.0987 11.1147C44.4187 7.688 40.08 4.29067 33.376 4.18133H33.0667L33.0694 4.176ZM15.3574 4.31467C15.0187 4.31467 14.68 4.32533 14.344 4.344C11.6507 4.49867 9.10402 5.28 7.28269 7.21067C5.45869 9.14133 4.25869 12.3067 4.52002 17.5467C4.57069 18.5387 5.00002 21.3173 5.74402 24.6187C6.48269 27.92 7.53069 31.8053 8.78936 35.2373C10.0507 38.6693 11.5787 41.656 13.0294 43.0693C13.76 43.776 14.3947 44.0613 14.9707 44.0373C15.5494 44.0107 16.2454 43.6773 17.096 42.656C18.647 40.7852 20.2567 38.9638 21.9227 37.1947C20.7406 36.1683 19.8359 34.8608 19.292 33.3928C18.7482 31.9248 18.5826 30.3435 18.8107 28.7947C19.0854 26.824 19.1227 24.9813 19.0907 23.5253C19.0587 22.1067 18.9574 21.1627 18.9574 20.5733C18.9569 20.5564 18.9569 20.5396 18.9574 20.5227V20.5093L18.9547 20.4933C18.9525 17.4217 19.4867 14.3732 20.5334 11.4853C21.28 9.50133 22.392 7.48533 24.0587 5.85333C22.4214 5.31467 19.5147 4.49333 16.368 4.33867C16.0305 4.32133 15.6926 4.31244 15.3547 4.312L15.3574 4.31467ZM48.4187 18.4C46.6054 18.4267 45.592 18.8907 45.0587 19.5013C44.304 20.368 44.232 21.888 44.7014 23.76C45.168 25.6347 46.1334 27.7333 47.04 29.472C47.4934 30.344 47.9334 31.128 48.288 31.7653C48.6454 32.4053 48.9067 32.8587 49.0667 33.2453C49.2134 33.6027 49.376 33.9173 49.5414 34.2107C50.2427 32.7307 50.368 31.2773 50.296 29.7627C50.2027 27.888 49.768 25.9707 49.832 24.0293C49.904 21.7627 50.352 20.2827 50.392 18.528C49.7377 18.4432 49.0785 18.4005 48.4187 18.4V18.4ZM26.4614 18.7067C25.9082 18.7118 25.3573 18.778 24.8187 18.904C23.7451 19.1657 22.7111 19.5692 21.744 20.104C21.416 20.2785 21.1038 20.481 20.8107 20.7093L20.7547 20.7627C20.7707 21.152 20.848 22.096 20.88 23.4853C20.912 25.0053 20.8747 26.944 20.5814 29.0427C19.9414 33.6027 23.2534 37.3787 27.1414 37.384C27.368 36.4507 27.7414 35.4987 28.1147 34.4987C29.1974 31.5813 31.328 29.4533 29.5334 21.1493C29.24 19.7893 28.6587 19.24 27.8587 18.9307C27.4103 18.7721 26.9369 18.6962 26.4614 18.7067V18.7067ZM47.5734 19.2507H47.7067C47.8683 19.2536 48.0291 19.2733 48.1867 19.3093C48.3307 19.3413 48.4534 19.3893 48.5547 19.456C48.6067 19.4882 48.6513 19.5309 48.6858 19.5815C48.7202 19.632 48.7437 19.6892 48.7547 19.7493L48.752 19.7707C48.7572 19.8973 48.7247 20.0226 48.6587 20.1307C48.58 20.277 48.4813 20.4117 48.3654 20.5307C48.0948 20.8286 47.7325 21.0275 47.336 21.096C46.9502 21.1426 46.5607 21.0448 46.2427 20.8213C46.1125 20.7338 45.9957 20.6278 45.896 20.5067C45.8097 20.4115 45.7516 20.2943 45.728 20.168C45.7225 20.1065 45.7295 20.0445 45.7488 19.9858C45.768 19.9271 45.7991 19.8729 45.84 19.8267C45.9275 19.7272 46.0335 19.6457 46.152 19.5867C46.408 19.4427 46.7547 19.336 47.1467 19.2773C47.2934 19.256 47.4374 19.2453 47.5734 19.2427V19.2507ZM26.72 19.6987C26.8614 19.6987 27.0107 19.712 27.1627 19.7333C27.5707 19.7893 27.9334 19.8987 28.2107 20.0587C28.346 20.1293 28.4664 20.2252 28.5654 20.3413C28.6193 20.4029 28.6599 20.475 28.6847 20.553C28.7094 20.631 28.7178 20.7133 28.7094 20.7947C28.6837 20.948 28.6143 21.0906 28.5094 21.2053C28.4003 21.3393 28.2717 21.4561 28.128 21.552C27.7812 21.7977 27.3552 21.9052 26.9334 21.8533C26.5022 21.7825 26.1076 21.5683 25.8134 21.2453C25.6882 21.1153 25.5822 20.968 25.4987 20.808C25.4108 20.6672 25.3723 20.5011 25.3894 20.336C25.4294 20.048 25.6667 19.8987 25.896 19.816C26.1611 19.7312 26.4394 19.6951 26.7174 19.7093L26.72 19.6987ZM50.88 39.28L50.872 39.2827C50.48 39.424 50.1574 39.4827 49.8854 39.6027C49.6093 39.708 49.3815 39.9111 49.2454 40.1733C49.08 40.48 48.936 41.0267 48.9787 41.9493C49.0993 42.0324 49.2326 42.0954 49.3734 42.136C49.8267 42.2747 50.5947 42.3653 51.448 42.352C53.1494 42.3333 55.2427 41.936 56.3547 41.4187C57.2669 40.9949 58.1137 40.4426 58.8694 39.7787H58.8667C55.152 40.5467 53.0534 40.3413 51.7654 39.8107C51.4455 39.6776 51.1472 39.4979 50.88 39.2773V39.28ZM29.464 39.5307H29.408C29.2667 39.544 29.0614 39.592 28.6614 40.032C27.736 41.072 27.408 41.7253 26.6454 42.336C25.88 42.944 24.8854 43.2693 22.8987 43.6773C22.4744 43.753 22.0613 43.882 21.6694 44.0613C21.7467 44.1253 21.7387 44.1413 21.856 44.2027C22.1467 44.3627 22.52 44.504 22.8214 44.5813C23.6747 44.7947 25.0774 45.0427 26.5414 44.7947C28.0054 44.544 29.528 43.8427 30.8267 42.0213C31.0507 41.7067 31.0747 41.2427 30.8907 40.744C30.704 40.2453 30.296 39.816 30.008 39.696C29.8367 39.6133 29.6529 39.5593 29.464 39.536V39.5307Z" fill="black"/>
</g>
<defs>
<clipPath id="clip0">
<rect width="64" height="64" fill="white"/>
</clipPath>
</defs>
</svg>
