<svg width="64" height="64" viewBox="0 0 64 64" fill="none" xmlns="http://www.w3.org/2000/svg">
<path d="M32 26.96C34.7467 26.96 36.9867 29.2 36.9867 32C36.9867 34.6667 34.7467 36.9333 32 36.9333C29.2534 36.9333 27.0134 34.6667 27.0134 32C27.0134 29.2 29.2534 26.96 32 26.96ZM19.6534 53.3333C21.3334 54.3467 25.0134 52.8 29.2534 48.8C27.8667 47.2267 26.5067 45.52 25.2267 43.7333C23.0778 43.5277 20.9414 43.2072 18.8267 42.7733C17.4667 48.48 17.9734 52.4 19.6534 53.3333V53.3333ZM21.5467 38.0267L20.7734 36.6667C20.48 37.44 20.1867 38.2133 20 38.96C20.72 39.12 21.52 39.2533 22.3467 39.3867L21.5467 38.0267ZM38.9867 36L41.1467 32L38.9867 28C38.1867 26.5867 37.3334 25.3333 36.56 24.08C35.12 24 33.6 24 32 24C30.4 24 28.88 24 27.44 24.08C26.6667 25.3333 25.8134 26.5867 25.0134 28L22.8534 32L25.0134 36C25.8134 37.4133 26.6667 38.6667 27.44 39.92C28.88 40 30.4 40 32 40C33.6 40 35.12 40 36.56 39.92C37.3334 38.6667 38.1867 37.4133 38.9867 36V36ZM32 18.08C31.4934 18.6667 30.96 19.28 30.4267 20H33.5734C33.04 19.28 32.5067 18.6667 32 18.08ZM32 45.92C32.5067 45.3333 33.04 44.72 33.5734 44H30.4267C30.96 44.72 31.4934 45.3333 32 45.92ZM44.32 10.6667C42.6667 9.65333 38.9867 11.2 34.7467 15.2C36.1334 16.7733 37.4934 18.48 38.7734 20.2667C40.96 20.48 43.12 20.8 45.1734 21.2267C46.5334 15.52 46.0267 11.6 44.32 10.6667ZM42.4534 25.9733L43.2267 27.3333C43.52 26.56 43.8134 25.7867 44 25.04C43.28 24.88 42.48 24.7467 41.6534 24.6133L42.4534 25.9733V25.9733ZM46.32 7.17333C50.24 9.41333 50.6667 15.3067 49.0134 22.1867C55.7867 24.1867 60.6667 27.4933 60.6667 32C60.6667 36.5067 55.7867 39.8133 49.0134 41.8133C50.6667 48.6933 50.24 54.5867 46.32 56.8267C42.4267 59.0667 37.12 56.5067 32 51.6267C26.88 56.5067 21.5734 59.0667 17.6534 56.8267C13.76 54.5867 13.3334 48.6933 14.9867 41.8133C8.21337 39.8133 3.33337 36.5067 3.33337 32C3.33337 27.4933 8.21337 24.1867 14.9867 22.1867C13.3334 15.3067 13.76 9.41333 17.6534 7.17333C21.5734 4.93333 26.88 7.49333 32 12.3733C37.12 7.49333 42.4267 4.93333 46.32 7.17333ZM45.5467 32C46.4534 34 47.2534 36 47.92 38.0267C53.52 36.3467 56.6667 33.9467 56.6667 32C56.6667 30.0533 53.52 27.6533 47.92 25.9733C47.2534 28 46.4534 30 45.5467 32ZM18.4534 32C17.5467 30 16.7467 28 16.08 25.9733C10.48 27.6533 7.33337 30.0533 7.33337 32C7.33337 33.9467 10.48 36.3467 16.08 38.0267C16.7467 36 17.5467 34 18.4534 32ZM42.4534 38.0267L41.6534 39.3867C42.48 39.2533 43.28 39.12 44 38.96C43.8134 38.2133 43.52 37.44 43.2267 36.6667L42.4534 38.0267V38.0267ZM34.7467 48.8C38.9867 52.8 42.6667 54.3467 44.32 53.3333C46.0267 52.4 46.5334 48.48 45.1734 42.7733C43.12 43.2 40.96 43.52 38.7734 43.7333C37.4934 45.52 36.1334 47.2267 34.7467 48.8V48.8ZM21.5467 25.9733L22.3467 24.6133C21.52 24.7467 20.72 24.88 20 25.04C20.1867 25.7867 20.48 26.56 20.7734 27.3333L21.5467 25.9733ZM29.2534 15.2C25.0134 11.2 21.3334 9.65333 19.6534 10.6667C17.9734 11.6 17.4667 15.52 18.8267 21.2267C20.9414 20.7928 23.0778 20.4723 25.2267 20.2667C26.5067 18.48 27.8667 16.7733 29.2534 15.2V15.2Z" fill="black"/>
</svg>
